<?xml version="1.0" encoding="iso-8859-1"?>
<!-- Generator: Adobe Illustrator 17.1.0, SVG Export Plug-In . SVG Version: 6.00 Build 0)  -->
<!DOCTYPE svg PUBLIC "-//W3C//DTD SVG 1.1//EN" "http://www.w3.org/Graphics/SVG/1.1/DTD/svg11.dtd">
<svg xmlns="http://www.w3.org/2000/svg" xmlns:xlink="http://www.w3.org/1999/xlink" version="1.1" id="Capa_1" x="0px" y="0px" viewBox="0 0 173.377 173.377" style="enable-background:new 0 0 173.377 173.377;" xml:space="preserve" width="380px" height="200px">
<path d="M163.688,129.903v-3.713c0-1.561-0.672-3.853-2.144-5.193l-3.407-3.111c-0.728-7.18-1.805-12.787-2.726-16.659  c-2.821-11.853-4.639-11.853-5.966-11.853c-1.374,0-3.255,0-6.099,12.321c-0.16,0.692-0.324,1.442-0.49,2.238l-5.829-5.322  c-0.623-10.408-2.07-18.258-3.258-23.237c-2.82-11.822-4.638-11.822-5.965-11.822c-1.374,0-3.256,0-6.1,12.274  c-0.471,2.033-0.98,4.535-1.459,7.461L107.93,72.041c-1.987-10.317-4.028-19.481-5.358-25.218  c-2.772-11.96-5.713-23.265-8.28-31.833C90,0.667,88.733,0,86.688,0c-2.034,0-3.501,0.724-7.818,14.982  c-2.557,8.446-5.492,19.755-8.266,31.846c-2.013,8.776-3.793,17.3-5.31,25.352l-10.571,9.653c-0.443-2.513-0.903-4.671-1.33-6.458  c-2.82-11.822-4.638-11.822-5.965-11.822c-1.374,0-3.256,0-6.099,12.274c-1.081,4.67-2.367,11.772-3.014,20.987l-7.12,6.501  c-0.16-0.741-0.318-1.443-0.472-2.089c-2.821-11.853-4.639-11.853-5.966-11.853c-1.374,0-3.255,0-6.099,12.321  c-0.849,3.678-1.825,8.852-2.518,15.367l-4.307,3.932c-1.474,1.343-2.146,3.634-2.146,5.195v3.713c0,2.352,1.689,4.199,3.899,4.384  l-1.088,1.313c-0.788,0.979-1.187,2.46-0.989,3.694l0.436,2.667c0.28,1.748,1.84,3.065,3.628,3.065H33.94  c1.783,0,3.343-1.325,3.627-3.083l0.436-2.698c0.198-1.224-0.19-2.655-1.012-3.674l-1.762-2.123l32.459-1.336v14.107l-9.711,9.193  c-0.99,0.932-1.542,2.526-1.342,3.887l1.659,11.212c0.241,1.638,1.594,2.797,3.217,2.797c0.432,0,0.857-0.145,1.266-0.31  l24.399-9.972h0.15l24.402,9.979c0.411,0.166,0.839,0.373,1.271,0.373h0.001c1.617,0,2.968-1.184,3.211-2.817l1.659-11.212  c0.203-1.378-0.349-2.994-1.337-3.924l-10.847-10.272v-13.04l33.255,1.371l-1.756,2.118c-0.788,0.979-1.187,2.46-0.989,3.694  l0.436,2.667c0.28,1.748,1.84,3.065,3.628,3.065h18.367c1.783,0,3.343-1.325,3.627-3.083l0.436-2.698  c0.198-1.224-0.19-2.655-1.012-3.674l-1.164-1.402C162.358,133.68,163.688,131.99,163.688,129.903z M94.467,63.025H79.139  c-2.447,0-2.071-1.78-1.847-2.883c3.493-17.212,6.698-31.845,9.365-31.845c2.81,0,5.737,14.667,9.226,31.796  C96.12,61.261,96.786,63.025,94.467,63.025z" fill="#FFDA44"/>
<g>
</g>
<g>
</g>
<g>
</g>
<g>
</g>
<g>
</g>
<g>
</g>
<g>
</g>
<g>
</g>
<g>
</g>
<g>
</g>
<g>
</g>
<g>
</g>
<g>
</g>
<g>
</g>
<g>
</g>
</svg>
