<?xml version="1.0" encoding="iso-8859-1"?>
<!-- Generator: Adobe Illustrator 19.0.0, SVG Export Plug-In . SVG Version: 6.00 Build 0)  -->
<svg xmlns="http://www.w3.org/2000/svg" xmlns:xlink="http://www.w3.org/1999/xlink" version="1.1" id="Layer_1" x="0px" y="0px" viewBox="0 0 512.001 512.001" style="enable-background:new 0 0 512.001 512.001;" xml:space="preserve" width="380px" height="200px">
<g>
	<g>
		<g>
			<path d="M511.534,493.513c-33.264-110.647-49.062-234.24-46.955-367.345c0.046-2.947-1.091-5.789-3.159-7.89     c-2.068-2.101-4.891-3.283-7.839-3.283H303.421c-2.948,0-5.771,1.182-7.839,3.283c-2.068,2.101-3.205,4.943-3.159,7.89     c0.857,54.113-1.253,106.651-6.287,157.389c-14.392,15.229-23.244,35.746-23.244,58.303v11.825h-28.009     c-11.416-71.964-16.56-148.039-15.3-227.517c0.046-2.947-1.091-5.789-3.159-7.89c-2.068-2.101-4.892-3.283-7.839-3.283H58.42     c-2.948,0-5.771,1.182-7.839,3.283c-2.068,2.101-3.205,4.943-3.159,7.89c2.109,133.108-13.69,256.701-46.955,367.344     c-1.002,3.331-0.368,6.94,1.707,9.73s5.348,4.436,8.826,4.436H501c3.478,0,6.752-1.646,8.826-4.436     C511.903,500.452,512.536,496.843,511.534,493.513z M367.502,136.994h21.999v27.636h-21.999V136.994z M367.502,186.629h21.999     v24.337h-21.999V186.629z M367.502,232.965h21.999v34.869c-6.81-3.845-14.196-6.773-21.999-8.628V232.965z M314.554,136.994     h30.948v119.955c-12.8,0.352-24.898,3.54-35.69,8.97C313.32,224.045,314.925,181.04,314.554,136.994z M166.499,136.994h30.949     c-0.637,75.449,4.458,147.878,15.167,216.691h-46.117V136.994z M122.501,136.994H144.5v27.636h-21.999V136.994z M122.501,186.629     H144.5v24.337h-21.999V186.629z M122.501,232.965H144.5v24.337h-21.999V232.965z M122.501,279.301H144.5v24.337h-21.999V279.301z      M122.501,325.636H144.5v28.049h-21.999V325.636z M122.501,419.683h98.996v21.999h-98.996V419.683z M100.502,485.68H25.68     c30.185-106.003,44.931-223.183,43.873-348.686h30.948V485.68z M342.492,441.682h-29.829c-6.074,0-11,4.924-11,11     c0,6.075,4.926,11,11,11h29.829v21.999H122.501v-21.999h109.996c6.074,0,11-4.924,11-11v-32.999h98.996V441.682z      M342.492,397.683H122.501v-21.999h219.991V397.683z M410.835,485.68h-46.343V364.685c0-6.075-4.926-11-11-11H284.89v-11.825     c0-34.723,28.25-62.973,62.972-62.973s62.973,28.249,62.973,62.973V485.68z M432.834,485.68V341.861     c0-21.543-8.073-41.224-21.334-56.218V136.994h30.947c-1.058,125.501,13.688,242.68,43.874,348.686H432.834z" fill="#FFDA44"/>
			<path d="M99.562,56.561c-6.116,4.633-15.357,11.635-15.357,25.435c0,6.075,4.926,11,11,11s11-4.924,11-11     c0-2.412,1.055-3.667,6.643-7.901c6.116-4.633,15.357-11.635,15.357-25.437s-9.241-20.802-15.357-25.435     c-5.588-4.234-6.643-5.489-6.643-7.901c0-6.075-4.926-11-11-11s-11,4.924-11,11c0,13.8,9.241,20.802,15.357,25.435     c5.588,4.234,6.643,5.489,6.643,7.901C106.205,51.073,105.149,52.328,99.562,56.561z" fill="#FFDA44"/>
			<path d="M154.155,56.561c-6.116,4.633-15.357,11.635-15.357,25.435c0,6.075,4.926,11,11,11s11-4.924,11-11     c0-2.412,1.055-3.667,6.643-7.901c6.116-4.633,15.357-11.635,15.357-25.437s-9.241-20.802-15.357-25.435     c-5.588-4.234-6.643-5.489-6.643-7.901c0-6.075-4.926-11-11-11s-11,4.924-11,11c0,13.8,9.241,20.802,15.357,25.435     c5.588,4.234,6.643,5.489,6.643,7.901C160.798,51.073,159.742,52.328,154.155,56.561z" fill="#FFDA44"/>
			<path d="M344.563,56.561c-6.116,4.633-15.357,11.635-15.357,25.435c0,6.075,4.926,11,11,11s11-4.924,11-11     c0-2.412,1.055-3.667,6.643-7.901c6.116-4.633,15.357-11.635,15.357-25.437s-9.241-20.802-15.357-25.435     c-5.588-4.234-6.643-5.489-6.643-7.901c0-6.075-4.926-11-11-11s-11,4.924-11,11c0,13.8,9.241,20.802,15.357,25.435     c5.588,4.234,6.643,5.489,6.643,7.901C351.206,51.073,350.15,52.328,344.563,56.561z" fill="#FFDA44"/>
			<path d="M399.155,56.561c-6.116,4.633-15.357,11.635-15.357,25.435c0,6.075,4.926,11,11,11s11-4.924,11-11     c0-2.412,1.055-3.667,6.643-7.901c6.116-4.633,15.357-11.635,15.357-25.437s-9.241-20.802-15.357-25.435     c-5.588-4.234-6.643-5.489-6.643-7.901c0-6.075-4.926-11-11-11s-11,4.924-11,11c0,13.8,9.241,20.802,15.357,25.435     c5.588,4.234,6.643,5.489,6.643,7.901C405.798,51.073,404.742,52.328,399.155,56.561z" fill="#FFDA44"/>
			<path d="M272.002,463.681h1.1c6.074,0,11-4.924,11-11c0-6.075-4.924-11-11-11h-1.1c-6.074,0-11,4.924-11,11     C261.003,458.756,265.929,463.681,272.002,463.681z" fill="#FFDA44"/>
		</g>
	</g>
</g>
<g>
</g>
<g>
</g>
<g>
</g>
<g>
</g>
<g>
</g>
<g>
</g>
<g>
</g>
<g>
</g>
<g>
</g>
<g>
</g>
<g>
</g>
<g>
</g>
<g>
</g>
<g>
</g>
<g>
</g>
</svg>
