<?xml version="1.0" encoding="iso-8859-1"?>
<!-- Generator: Adobe Illustrator 19.0.0, SVG Export Plug-In . SVG Version: 6.00 Build 0)  -->
<svg xmlns="http://www.w3.org/2000/svg" xmlns:xlink="http://www.w3.org/1999/xlink" version="1.1" id="Layer_1" x="0px" y="0px" viewBox="0 0 496 496" style="enable-background:new 0 0 496 496;" xml:space="preserve" width="380px" height="200px">
<g>
	<g>
		<g>
			<path d="M457.312,79.272C459.472,79.736,461.704,80,464,80c17.648,0,32-14.352,32-32s-14.352-32-32-32s-32,14.352-32,32     c0,9.6,4.336,18.128,11.056,24l-36.696,73.4C379.728,61.208,300.888,0,208,0C93.304,0,0,93.304,0,208     c0,100.376,70.288,184.944,168,203.928V456c0,22.056,17.944,40,40,40c22.056,0,40-17.944,40-40v-44.072     C345.712,392.944,416,308.376,416,208c0-13.248-1.296-26.192-3.68-38.76L457.312,79.272z M464,32c8.816,0,16,7.184,16,16     s-7.184,16-16,16c-8.824,0-16-7.184-16-16S455.176,32,464,32z M395.544,167.008l-4.856,9.72c-2.16-0.464-4.392-0.728-6.688-0.728     c-6.12,0-11.784,1.816-16.648,4.8l-49.064-42.936c1.016-3.12,1.712-6.4,1.712-9.864c0-1-0.208-1.936-0.296-2.912     c23.376-8.96,38.624-19.024,46.776-25.32C380.2,119.792,390.2,142.536,395.544,167.008z M356.256,192.352     c-1.352,2.392-2.416,4.936-3.12,7.648h-33.392c-0.472-14.944-2.216-29.736-5.28-44.216L356.256,192.352z M356.888,86.944     c-6.992,5.4-20.88,14.704-42.472,23.04c-4.728-6.912-12.096-11.832-20.64-13.408c-18.696-37.328-43.224-63.52-60.512-78.872     C282.944,24.28,326.688,49.872,356.888,86.944z M304,128c0,8.816-7.184,16-16,16c-8.824,0-16-7.176-16-16c0-8.824,7.176-16,16-16     C296.816,112,304,119.184,304,128z M216,24.064c15.048,12.44,40.912,37.296,60.624,74.128c-6.056,2.312-11.24,6.36-14.888,11.608     c-14.12-7.752-29.672-12.36-45.736-13.504V24.064z M208,176c-17.648,0-32,14.352-32,32s14.352,32,32,32s32-14.352,32-32     c0-5.92-1.72-11.392-4.536-16.152l17.32-17.32C259.792,183.88,264,195.44,264,208c0,30.872-25.128,56-56,56s-56-25.128-56-56     s25.128-56,56-56c12.56,0,24.12,4.208,33.472,11.216l-17.32,17.32C219.392,177.72,213.92,176,208,176z M224,208     c0,8.824-7.184,16-16,16c-8.824,0-16-7.176-16-16c0-8.824,7.176-16,16-16C216.816,192,224,199.176,224,208z M200,24.096V96.4     c-23.4,1.664-44.824,10.472-62.072,24.36c-2.792-0.608-5.56-1.224-8.2-1.888C149.92,70.448,182.376,38.72,200,24.096z      M182.552,17.736c-20.056,17.728-49.736,49.792-68.616,96.592C85.184,105.04,67.32,93.304,59.104,86.952     C89.272,49.912,132.952,24.336,182.552,17.736z M124.192,133.952c-0.096,0.104-0.192,0.208-0.28,0.312     c0.04-0.112,0.072-0.24,0.112-0.352C124.08,133.928,124.136,133.944,124.192,133.952z M49.504,99.784     c9.464,7.336,28.56,19.752,58.896,29.584c-6.88,20.928-11.424,44.48-12.208,70.632H16.2     C17.728,162.936,29.792,128.56,49.504,99.784z M16.36,216h79.872c0.792,26.072,5.328,49.584,12.28,70.592     c-30.6,9.904-49.792,22.44-59.2,29.768C29.656,287.496,17.864,253.048,16.36,216z M168,395.6     c-44.272-9.328-82.2-33.256-109.104-66.392c8.128-6.32,26.072-18.192,55.128-27.568c14.304,35.272,34.952,62.616,53.976,82.376     V395.6z M123.704,281.512c0.16,0.184,0.328,0.352,0.48,0.536c-0.096,0.024-0.184,0.056-0.28,0.08     C123.84,281.92,123.776,281.712,123.704,281.512z M168,360.128c-14.032-16.664-28.016-37.584-38.52-62.936     c2.72-0.688,5.568-1.328,8.448-1.96c8.992,7.232,19.128,13.048,30.072,17.256V360.128z M232,456c0,13.232-10.768,24-24,24     s-24-10.768-24-24V317.344c7.744,1.696,15.752,2.656,24,2.656c8.24,0,16.256-0.96,24-2.656V456z M208,304     c-52.936,0-96-43.064-96-96c0-52.936,43.064-96,96-96c17.056,0,33.632,4.552,48.288,13.12C256.2,126.08,256,127.016,256,128     c0,5.92,1.72,11.392,4.536,16.152l-7.648,7.648C240.568,141.936,224.976,136,208,136c-39.704,0-72,32.296-72,72s32.296,72,72,72     s72-32.296,72-72c0-16.976-5.936-32.568-15.8-44.888l7.648-7.648C276.608,158.28,282.08,160,288,160     c0.984,0,1.912-0.2,2.88-0.288C299.448,174.368,304,190.944,304,208C304,260.936,260.936,304,208,304z M292.296,281.512     c-0.064,0.2-0.136,0.408-0.2,0.608c-0.104-0.024-0.192-0.048-0.288-0.072C291.968,281.872,292.136,281.696,292.296,281.512z      M286.512,297.184c-10.496,25.352-24.48,46.272-38.512,62.936v-47.64c10.944-4.2,21.088-10.008,30.072-17.248     C280.952,295.864,283.792,296.504,286.512,297.184z M248,395.6v-11.584c19.016-19.752,39.672-47.104,53.976-82.376     c29.048,9.368,47,21.248,55.128,27.568C330.2,362.344,292.272,386.272,248,395.6z M366.68,316.36     c-9.408-7.328-28.608-19.864-59.2-29.768c6.952-21.008,11.496-44.52,12.28-70.592h33.376c3.576,13.768,15.992,24,30.864,24     c4.92,0,9.536-1.208,13.704-3.2C393.368,265.936,382.608,292.984,366.68,316.36z M384,224c-8.824,0-16-7.176-16-16     c0-8.824,7.176-16,16-16c8.816,0,16,7.176,16,16C400,216.824,392.816,224,384,224z" fill="#FFDA44"/>
			<rect x="480" y="144" width="16" height="16" fill="#FFDA44"/>
			<rect x="464" y="128" width="16" height="16" fill="#FFDA44"/>
			<rect x="448" y="144" width="16" height="16" fill="#FFDA44"/>
			<rect x="464" y="160" width="16" height="16" fill="#FFDA44"/>
			<rect x="392" y="16" width="16" height="16" fill="#FFDA44"/>
			<rect x="376" width="16" height="16" fill="#FFDA44"/>
			<rect x="360" y="16" width="16" height="16" fill="#FFDA44"/>
			<rect x="376" y="32" width="16" height="16" fill="#FFDA44"/>
		</g>
	</g>
</g>
<g>
</g>
<g>
</g>
<g>
</g>
<g>
</g>
<g>
</g>
<g>
</g>
<g>
</g>
<g>
</g>
<g>
</g>
<g>
</g>
<g>
</g>
<g>
</g>
<g>
</g>
<g>
</g>
<g>
</g>
</svg>
